<svg width="45" height="15" viewBox="0 0 45 15" fill="none" xmlns="http://www.w3.org/2000/svg">
<g clip-path="url(#clip0_18002_982)">
<path d="M16.6417 11.8339C16.7273 11.9196 16.8272 11.9624 16.9472 11.9624H18.9628C19.0798 11.9624 19.1826 11.9196 19.2682 11.8339C19.3539 11.7483 19.3967 11.6483 19.3967 11.5284V7.12891C19.3967 6.50081 19.3111 5.95551 19.1398 5.49586C18.9685 5.03621 18.7315 4.65937 18.4289 4.3596C18.1234 4.05983 17.758 3.83999 17.3326 3.69439C16.9043 3.55164 16.4361 3.47741 15.9251 3.47741C15.4226 3.47741 14.9801 3.58019 14.5975 3.7886C14.2121 3.99702 13.9295 4.214 13.7496 4.43668V1.03071C13.7496 0.913654 13.7068 0.810874 13.6211 0.728079C13.5355 0.642434 13.4355 0.599609 13.3185 0.599609H11.2943C11.1773 0.599609 11.0745 0.642434 10.9888 0.728079C10.9032 0.813729 10.8604 0.913654 10.8604 1.03071V11.5284C10.8604 11.6455 10.9032 11.7483 10.9888 11.8339C11.0745 11.9196 11.1744 11.9624 11.2943 11.9624H13.3099C13.427 11.9624 13.5298 11.9196 13.6126 11.8339C13.6982 11.7483 13.741 11.6483 13.741 11.5284V7.48006C13.741 7.02041 13.8495 6.65216 14.0693 6.37521C14.2892 6.09826 14.6375 5.95836 15.1171 5.95836C15.5968 5.95836 15.9479 6.09826 16.1735 6.37521C16.3961 6.65216 16.5103 7.02041 16.5103 7.48006V11.5284C16.5132 11.6483 16.556 11.7483 16.6417 11.8339Z" fill="#8347AD"/>
<path d="M23.6189 3.64014H21.6005C21.4834 3.64014 21.3806 3.68296 21.295 3.76861C21.2093 3.85426 21.1665 3.95418 21.1665 4.07124V11.5284C21.1665 11.6454 21.2093 11.7482 21.295 11.8339C21.3806 11.9195 21.4806 11.9623 21.6005 11.9623H23.6161C23.7331 11.9623 23.8359 11.9195 23.9187 11.8339C24.0044 11.7482 24.0472 11.6483 24.0472 11.5284V4.07124C24.0472 3.95418 24.0044 3.85141 23.9187 3.76861C23.8359 3.68296 23.736 3.64014 23.6189 3.64014Z" fill="#8347AD"/>
<path d="M34.1881 10.0723C34.3851 9.61264 34.4936 9.07019 34.5164 8.43924C34.5278 8.27934 34.5335 8.06239 34.5335 7.79114C34.5335 7.51994 34.5278 7.30294 34.5164 7.14309C34.4936 6.51499 34.3851 5.96969 34.1881 5.51004C33.9911 5.05039 33.7313 4.67068 33.4115 4.36519C33.0918 4.05971 32.7178 3.83702 32.2924 3.69427C31.8642 3.55152 31.4131 3.47729 30.9334 3.47729C30.5823 3.47729 30.2854 3.50584 30.0455 3.5658C29.8057 3.62575 29.603 3.69998 29.4374 3.78848C29.2718 3.87984 29.1348 3.98263 29.0206 4.09968C28.9093 4.21674 28.8036 4.32808 28.7094 4.43657V4.06828C28.7094 3.95122 28.6666 3.84844 28.5809 3.7628C28.4953 3.67715 28.3954 3.63432 28.2783 3.63432H26.3426C26.2256 3.63432 26.1228 3.67715 26.0372 3.7628C25.9515 3.84844 25.9087 3.94837 25.9087 4.06828V14.566C25.9087 14.683 25.9515 14.7858 26.0372 14.8715C26.1228 14.9571 26.2227 14.9999 26.3426 14.9999H28.3583C28.4753 14.9999 28.5781 14.9571 28.6637 14.8715C28.7494 14.7858 28.7922 14.6859 28.7922 14.566V11.1629C28.8664 11.2599 28.9635 11.3627 29.0806 11.474C29.1976 11.5854 29.3432 11.691 29.5117 11.7852C29.683 11.8823 29.8857 11.9622 30.1198 12.0251C30.3539 12.0879 30.6251 12.1221 30.9363 12.1221C31.4159 12.1221 31.8699 12.0479 32.2953 11.8994C32.7206 11.751 33.0946 11.5226 33.4144 11.22C33.7313 10.9145 33.9911 10.5319 34.1881 10.0723ZM31.65 8.24794C31.6186 8.62194 31.4959 8.94739 31.2817 9.22434C31.0676 9.50129 30.7107 9.64119 30.2083 9.64119C29.9742 9.64119 29.7715 9.60404 29.6002 9.52984C29.4289 9.45559 29.289 9.35569 29.1748 9.23289C29.0634 9.11014 28.9749 8.97309 28.9121 8.82464C28.8493 8.67619 28.8065 8.52204 28.7836 8.35929C28.7608 8.19939 28.7522 8.01384 28.7522 7.79974C28.7522 7.58559 28.7637 7.40004 28.7836 7.24014C28.8036 7.08029 28.8465 6.92609 28.9121 6.77479C28.9749 6.62634 29.0634 6.48929 29.1748 6.36654C29.2861 6.24374 29.4289 6.14384 29.6002 6.06959C29.7715 5.99539 29.9742 5.95824 30.2083 5.95824C30.7107 5.95824 31.0676 6.09814 31.2817 6.37509C31.4959 6.65204 31.6186 6.97749 31.65 7.35149C31.6843 7.65124 31.6843 7.95104 31.65 8.24794Z" fill="#8347AD"/>
<path d="M41.7481 11.8339C41.8337 11.9195 41.9337 11.9623 42.0536 11.9623H43.9093C44.0264 11.9623 44.1291 11.9195 44.2119 11.8339C44.2976 11.7482 44.3404 11.6483 44.3404 11.5284V4.07124C44.3404 3.95418 44.2976 3.85141 44.2119 3.76861C44.1263 3.68296 44.0264 3.64014 43.9093 3.64014H41.8937C41.7766 3.64014 41.6739 3.68296 41.5882 3.76861C41.5026 3.85426 41.4597 3.95418 41.4597 4.07124V8.1196C41.4597 8.57925 41.3598 8.94755 41.1628 9.22445C40.9658 9.5014 40.6318 9.6413 40.1636 9.6413C39.6954 9.6413 39.3585 9.5014 39.1558 9.22445C38.9531 8.94755 38.8503 8.57925 38.8503 8.1196V4.07124C38.8503 3.95418 38.8075 3.85141 38.7218 3.76861C38.6362 3.68296 38.5363 3.64014 38.4163 3.64014H36.4007C36.2837 3.64014 36.1809 3.68296 36.0953 3.76861C36.0096 3.85426 35.9668 3.95418 35.9668 4.07124V8.47075C35.9668 9.7298 36.2723 10.6519 36.8861 11.24C37.4999 11.8282 38.325 12.1194 39.3585 12.1194C39.6897 12.1194 39.9752 12.0908 40.215 12.0309C40.4548 11.9709 40.6661 11.8967 40.8459 11.8082C41.0286 11.7168 41.18 11.6169 41.3027 11.5027C41.4255 11.3914 41.5283 11.2772 41.6139 11.1601V11.5284C41.6196 11.6483 41.6624 11.7482 41.7481 11.8339Z" fill="#8347AD"/>
<path d="M22.5569 2.78074C21.7889 2.78074 21.1665 2.1555 21.1665 1.39037C21.1665 0.622385 21.7918 0 22.5569 0C23.3249 0 23.9473 0.62524 23.9473 1.39037C23.9501 2.1555 23.3249 2.78074 22.5569 2.78074Z" fill="#3CB4E5"/>
<path d="M3.1374 7.43996V4.78198L2.34372 5.77836C2.22095 5.93256 2.21524 6.14951 2.32944 6.31226L3.1374 7.43996Z" fill="#743CEB"/>
<path d="M2.96345 0.722369C2.88351 0.642434 2.78074 0.599609 2.66368 0.599609H0.40826C0.299771 0.599609 0.205557 0.639579 0.122763 0.722369C0.0428246 0.802309 0 0.905089 0 1.02214V11.557C0 11.6655 0.0399696 11.7597 0.122763 11.8425C0.202703 11.9224 0.299771 11.9652 0.40826 11.9652H2.66368C2.78359 11.9652 2.88351 11.9253 2.96345 11.8425C3.04339 11.7625 3.08622 11.6655 3.08622 11.557V8.41081L2.83783 8.08246L2.83212 8.07676L2.82642 8.06821L1.81576 6.65216C1.55024 6.28101 1.56166 5.76996 1.84716 5.41306L2.84069 4.16261L3.08622 3.84285V1.01929C3.08622 0.902234 3.04625 0.802309 2.96345 0.722369Z" fill="#8347AD"/>
<path d="M9.60962 11.9625C9.70667 11.9625 9.78947 11.9282 9.85227 11.8568C9.91797 11.7855 9.94937 11.7084 9.94937 11.6227C9.94937 11.5371 9.92652 11.4714 9.88367 11.4286L5.89242 6.0384L9.59247 1.13642C9.63532 1.08217 9.65812 1.01651 9.65812 0.942284C9.65812 0.856634 9.62387 0.776694 9.55252 0.708174C9.50967 0.665349 9.45832 0.633944 9.40407 0.616814C9.37267 0.608249 9.33552 0.602539 9.30127 0.602539H6.73752C6.56337 0.602539 6.42632 0.636799 6.32352 0.708174C6.22077 0.779549 6.14082 0.850924 6.08942 0.928009L3.32868 4.54525L2.32944 5.80145C2.27234 5.8728 2.24094 5.95845 2.24094 6.04695C2.23808 6.13545 2.26378 6.2211 2.31802 6.2982L2.83477 7.0205L3.32868 7.70855L6.29787 11.6199C6.32927 11.6627 6.39492 11.7312 6.49197 11.8226C6.55192 11.8797 6.63472 11.9197 6.73752 11.9425C6.80032 11.9568 6.86882 11.9625 6.94592 11.9625H9.60962Z" fill="#3CB4E5"/>
</g>
<defs>
<clipPath id="clip0_18002_982">
<rect width="44.5" height="15" fill="white"/>
</clipPath>
</defs>
</svg>
