<?xml version="1.0" encoding="UTF-8"?><svg xmlns="http://www.w3.org/2000/svg" viewBox="0 0 200 75"><g><path fill="#FFFFFF" d="M80.63,52.68c0.3,0.3,0.65,0.45,1.07,0.45h7.06c0.41,0,0.77-0.15,1.07-0.45c0.3-0.3,0.45-0.65,0.45-1.07 V36.2c0-2.2-0.3-4.11-0.9-5.72c-0.6-1.61-1.43-2.93-2.49-3.98c-1.07-1.05-2.35-1.82-3.84-2.33c-1.5-0.5-3.14-0.76-4.93-0.76 c-1.76,0-3.31,0.36-4.65,1.09c-1.35,0.73-2.34,1.49-2.97,2.27V14.84c0-0.41-0.15-0.77-0.45-1.06c-0.3-0.3-0.65-0.45-1.06-0.45H61.9 c-0.41,0-0.77,0.15-1.07,0.45c-0.3,0.3-0.45,0.65-0.45,1.06v36.77c0,0.41,0.15,0.77,0.45,1.07c0.3,0.3,0.65,0.45,1.07,0.45h7.06 c0.41,0,0.77-0.15,1.06-0.45c0.3-0.3,0.45-0.65,0.45-1.07V37.43c0-1.61,0.38-2.9,1.15-3.87c0.77-0.97,1.99-1.46,3.67-1.46 c1.68,0,2.91,0.49,3.7,1.46c0.78,0.97,1.18,2.26,1.18,3.87v14.18C80.18,52.03,80.33,52.38,80.63,52.68z"></path><path fill="#FFFFFF" d="M105.07,23.98H98c-0.41,0-0.77,0.15-1.07,0.45c-0.3,0.3-0.45,0.65-0.45,1.06v26.12 c0,0.41,0.15,0.77,0.45,1.07c0.3,0.3,0.65,0.45,1.07,0.45h7.06c0.41,0,0.77-0.15,1.06-0.45c0.3-0.3,0.45-0.65,0.45-1.07V25.49 c0-0.41-0.15-0.77-0.45-1.06C105.83,24.13,105.48,23.98,105.07,23.98z"></path><path fill="#FFFFFF" d="M142.09,46.51c0.69-1.61,1.07-3.51,1.15-5.72c0.04-0.56,0.06-1.32,0.06-2.27c0-0.95-0.02-1.71-0.06-2.27 c-0.08-2.2-0.46-4.11-1.15-5.72c-0.69-1.61-1.6-2.94-2.72-4.01c-1.12-1.07-2.43-1.85-3.92-2.35c-1.5-0.5-3.08-0.76-4.76-0.76 c-1.23,0-2.27,0.1-3.11,0.31c-0.84,0.21-1.55,0.47-2.13,0.78c-0.58,0.32-1.06,0.68-1.46,1.09c-0.39,0.41-0.76,0.8-1.09,1.18v-1.29 c0-0.41-0.15-0.77-0.45-1.07c-0.3-0.3-0.65-0.45-1.06-0.45h-6.78c-0.41,0-0.77,0.15-1.07,0.45c-0.3,0.3-0.45,0.65-0.45,1.07v36.77 c0,0.41,0.15,0.77,0.45,1.07c0.3,0.3,0.65,0.45,1.07,0.45h7.06c0.41,0,0.77-0.15,1.07-0.45c0.3-0.3,0.45-0.65,0.45-1.07V50.33 c0.26,0.34,0.6,0.7,1.01,1.09c0.41,0.39,0.92,0.76,1.51,1.09c0.6,0.34,1.31,0.62,2.13,0.84c0.82,0.22,1.77,0.34,2.86,0.34 c1.68,0,3.27-0.26,4.76-0.78c1.49-0.52,2.8-1.32,3.92-2.38C140.49,49.46,141.4,48.12,142.09,46.51z M133.2,40.12 c-0.11,1.31-0.54,2.45-1.29,3.42c-0.75,0.97-2,1.46-3.76,1.46c-0.82,0-1.53-0.13-2.13-0.39c-0.6-0.26-1.09-0.61-1.49-1.04 c-0.39-0.43-0.7-0.91-0.92-1.43c-0.22-0.52-0.37-1.06-0.45-1.63c-0.08-0.56-0.11-1.21-0.11-1.96c0-0.75,0.04-1.4,0.11-1.96 c0.07-0.56,0.22-1.1,0.45-1.63c0.22-0.52,0.53-1,0.92-1.43c0.39-0.43,0.89-0.78,1.49-1.04c0.6-0.26,1.31-0.39,2.13-0.39 c1.76,0,3.01,0.49,3.76,1.46c0.75,0.97,1.18,2.11,1.29,3.42C133.32,38.03,133.32,39.08,133.2,40.12z"></path><path fill="#FFFFFF" d="M168.57,52.68c0.3,0.3,0.65,0.45,1.07,0.45h6.5c0.41,0,0.77-0.15,1.06-0.45c0.3-0.3,0.45-0.65,0.45-1.07 V25.49c0-0.41-0.15-0.77-0.45-1.06c-0.3-0.3-0.65-0.45-1.06-0.45h-7.06c-0.41,0-0.77,0.15-1.07,0.45c-0.3,0.3-0.45,0.65-0.45,1.06 v14.18c0,1.61-0.35,2.9-1.04,3.87c-0.69,0.97-1.86,1.46-3.5,1.46c-1.64,0-2.82-0.49-3.53-1.46c-0.71-0.97-1.07-2.26-1.07-3.87 V25.49c0-0.41-0.15-0.77-0.45-1.06c-0.3-0.3-0.65-0.45-1.07-0.45h-7.06c-0.41,0-0.77,0.15-1.07,0.45c-0.3,0.3-0.45,0.65-0.45,1.06 v15.41c0,4.41,1.07,7.64,3.22,9.7c2.15,2.06,5.04,3.08,8.66,3.08c1.16,0,2.16-0.1,3-0.31c0.84-0.21,1.58-0.47,2.21-0.78 c0.64-0.32,1.17-0.67,1.6-1.07c0.43-0.39,0.79-0.79,1.09-1.2v1.29C168.12,52.03,168.27,52.38,168.57,52.68z"></path><path fill="#FFFFFF" d="M101.35,20.97c-2.69,0-4.87-2.19-4.87-4.87c0-2.69,2.19-4.87,4.87-4.87c2.69,0,4.87,2.19,4.87,4.87 C106.23,18.78,104.04,20.97,101.35,20.97"></path><path fill="#FFFFFF" d="M33.33,37.29v-9.31l-2.78,3.49c-0.43,0.54-0.45,1.3-0.05,1.87L33.33,37.29z"></path><path fill="#FFFFFF" d="M32.72,13.76c-0.28-0.28-0.64-0.43-1.05-0.43h-7.9c-0.38,0-0.71,0.14-1,0.43 c-0.28,0.28-0.43,0.64-0.43,1.05v36.9c0,0.38,0.14,0.71,0.43,1c0.28,0.28,0.62,0.43,1,0.43h7.9c0.42,0,0.77-0.14,1.05-0.43 c0.28-0.28,0.43-0.62,0.43-1V40.69l-0.87-1.15l-0.02-0.02l-0.02-0.03l-3.54-4.96c-0.93-1.3-0.89-3.09,0.11-4.34l3.48-4.38 l0.86-1.12v-9.89C33.15,14.39,33.01,14.04,32.72,13.76z"></path><path fill="#FFFFFF" d="M56,53.13c0.34,0,0.63-0.12,0.85-0.37c0.23-0.25,0.34-0.52,0.34-0.82c0-0.3-0.08-0.53-0.23-0.68 L42.98,32.38l12.96-17.17c0.15-0.19,0.23-0.42,0.23-0.68c0-0.3-0.12-0.58-0.37-0.82c-0.15-0.15-0.33-0.26-0.52-0.32 c-0.11-0.03-0.24-0.05-0.36-0.05h-8.98c-0.61,0-1.09,0.12-1.45,0.37c-0.36,0.25-0.64,0.5-0.82,0.77L34,27.15l-3.5,4.4 c-0.2,0.25-0.31,0.55-0.31,0.86c-0.01,0.31,0.08,0.61,0.27,0.88l1.81,2.53L34,38.23l10.4,13.7c0.11,0.15,0.34,0.39,0.68,0.71 c0.21,0.2,0.5,0.34,0.86,0.42c0.22,0.05,0.46,0.07,0.73,0.07H56z"></path></g></svg>
